<svg width="15" height="11" viewBox="0 0 15 11" fill="none" xmlns="http://www.w3.org/2000/svg">
<path d="M7.50331 6.98611L13.1753 0.368113C13.2655 0.253681 13.3805 0.161193 13.5116 0.0976028C13.6428 0.0340131 13.7866 0.000976562 13.9323 0.000976562C14.078 0.000976562 14.2219 0.0340131 14.353 0.0976028C14.4841 0.161193 14.5991 0.253681 14.6893 0.368113C14.8907 0.619104 15.0005 0.931294 15.0005 1.25311C15.0005 1.57493 14.8907 1.88712 14.6893 2.13811L8.26331 9.63811C8.17549 9.74838 8.06455 9.83804 7.93832 9.90079C7.81209 9.96353 7.67364 9.99783 7.53272 10.0013C7.39179 10.0047 7.25183 9.97718 7.1227 9.92065C6.99356 9.86413 6.87839 9.77997 6.78531 9.67411L0.313309 2.14311C0.111196 1.89243 0.000976562 1.58012 0.000976562 1.25811C0.000976562 0.936102 0.111196 0.623794 0.313309 0.373113C0.403534 0.258681 0.518527 0.166193 0.649643 0.102603C0.78076 0.0390132 0.924586 0.00597668 1.07031 0.00597668C1.21603 0.00597668 1.35986 0.0390132 1.49097 0.102603C1.62209 0.166193 1.73708 0.258681 1.82731 0.373113L7.50331 6.98611Z" fill="#98B3FF"/>
</svg>
