<svg width="390" height="65" viewBox="0 0 390 65" fill="none" xmlns="http://www.w3.org/2000/svg">
<path d="M370 0H20C8.9543 0 0 8.9543 0 20V45C0 56.0457 8.9543 65 20 65H370C381.046 65 390 56.0457 390 45V20C390 8.9543 381.046 0 370 0Z" fill="#F4F7FF"/>
<path d="M206.214 28.821H198.179V20.786C198.179 20.3123 197.991 19.858 197.656 19.5231C197.321 19.1882 196.867 19 196.393 19H194.607C194.133 19 193.679 19.1882 193.344 19.5231C193.009 19.858 192.821 20.3123 192.821 20.786V28.822H184.786C184.312 28.822 183.858 29.01 183.523 29.3448C183.189 29.6795 183 30.1335 183 30.607V32.393C183 32.8667 183.188 33.321 183.523 33.6559C183.858 33.9908 184.312 34.179 184.786 34.179H192.821V42.215C192.821 42.6887 193.009 43.143 193.344 43.4779C193.679 43.8128 194.133 44.001 194.607 44.001H196.393C196.867 44.001 197.321 43.8128 197.656 43.4779C197.991 43.143 198.179 42.6887 198.179 42.215V34.179H206.215C206.689 34.1787 207.143 33.9904 207.477 33.6555C207.812 33.3206 208 32.8665 208 32.393V30.607C208 30.1333 207.812 29.679 207.477 29.3441C207.142 29.0092 206.688 28.821 206.214 28.821Z" fill="#D1DDFF"/>
</svg>
