<svg width="15" height="15" viewBox="0 0 15 15" fill="none" xmlns="http://www.w3.org/2000/svg">
<path d="M14.2929 2.21811C14.6834 1.82758 14.6834 1.19442 14.2929 0.803893L14.1961 0.707107C13.8056 0.316583 13.1724 0.316582 12.7819 0.707107L8.20711 5.28189C7.81658 5.67242 7.18342 5.67242 6.79289 5.28189L2.21811 0.707107C1.82758 0.316583 1.19442 0.316582 0.803893 0.707107L0.707107 0.803893C0.316583 1.19442 0.316582 1.82758 0.707107 2.21811L5.28189 6.79289C5.67242 7.18342 5.67242 7.81658 5.28189 8.20711L0.707107 12.7819C0.316583 13.1724 0.316582 13.8056 0.707107 14.1961L0.803893 14.2929C1.19442 14.6834 1.82758 14.6834 2.21811 14.2929L6.79289 9.71811C7.18342 9.32758 7.81658 9.32758 8.20711 9.71811L12.7819 14.2929C13.1724 14.6834 13.8056 14.6834 14.1961 14.2929L14.2929 14.1961C14.6834 13.8056 14.6834 13.1724 14.2929 12.7819L9.71811 8.20711C9.32758 7.81658 9.32758 7.18342 9.71811 6.79289L14.2929 2.21811Z" fill="#98B3FF"/>
</svg>
