<svg width="33" height="21" viewBox="0 0 33 21" fill="none" xmlns="http://www.w3.org/2000/svg">
<path d="M22.5 9C23.39 9 24.26 8.73608 25.0001 8.24162C25.7401 7.74715 26.3169 7.04434 26.6575 6.22208C26.9981 5.39981 27.0872 4.49501 26.9135 3.6221C26.7399 2.74918 26.3113 1.94736 25.682 1.31802C25.0526 0.688685 24.2508 0.260102 23.3779 0.0864683C22.505 -0.0871652 21.6002 0.00194976 20.7779 0.342544C19.9557 0.683138 19.2529 1.25991 18.7584 1.99994C18.2639 2.73996 18 3.60999 18 4.5C17.9975 5.09165 18.1122 5.67795 18.3374 6.22505C18.5627 6.77215 18.894 7.26922 19.3124 7.68759C19.7308 8.10595 20.2279 8.43732 20.775 8.66258C21.3221 8.88784 21.9083 9.00252 22.5 9ZM10.5 9C11.39 9 12.26 8.73608 13.0001 8.24162C13.7401 7.74715 14.3169 7.04434 14.6575 6.22208C14.9981 5.39981 15.0872 4.49501 14.9135 3.6221C14.7399 2.74918 14.3113 1.94736 13.682 1.31802C13.0526 0.688685 12.2508 0.260102 11.3779 0.0864683C10.505 -0.0871652 9.60019 0.00194976 8.77792 0.342544C7.95566 0.683138 7.25285 1.25991 6.75839 1.99994C6.26392 2.73996 6 3.60999 6 4.5C5.99749 5.09165 6.11217 5.67795 6.33742 6.22505C6.56268 6.77215 6.89405 7.26922 7.31241 7.68759C7.73078 8.10595 8.22785 8.43732 8.77495 8.66258C9.32205 8.88784 9.90835 9.00252 10.5 9ZM10.5 12C7.005 12 0 13.755 0 17.25V21H21V17.25C21 13.755 13.995 12 10.5 12ZM22.5 12C22.065 12 21.57 12.03 21.045 12.075C21.9245 12.6287 22.6542 13.3905 23.1696 14.293C23.6849 15.1956 23.9701 16.2111 24 17.25V21H33V17.25C33 13.755 25.995 12 22.5 12Z" fill="#D1DDFF"/>
</svg>
