<svg width="27" height="15" viewBox="0 0 27 15" fill="none" xmlns="http://www.w3.org/2000/svg">
<path d="M0 7.5C0 8.32843 0.671573 9 1.5 9V9C2.32843 9 3 8.32843 3 7.5V7.5C3 6.67157 2.32843 6 1.5 6V6C0.671573 6 0 6.67157 0 7.5V7.5ZM0 13.5C0 14.3284 0.671573 15 1.5 15V15C2.32843 15 3 14.3284 3 13.5V13.5C3 12.6716 2.32843 12 1.5 12V12C0.671573 12 0 12.6716 0 13.5V13.5ZM0 1.5C0 2.32843 0.671573 3 1.5 3V3C2.32843 3 3 2.32843 3 1.5V1.5C3 0.671573 2.32843 0 1.5 0V0C0.671573 0 0 0.671573 0 1.5V1.5ZM6 7.5C6 8.32843 6.67157 9 7.5 9H25.5C26.3284 9 27 8.32843 27 7.5V7.5C27 6.67157 26.3284 6 25.5 6H7.5C6.67157 6 6 6.67157 6 7.5V7.5ZM6 13.5C6 14.3284 6.67157 15 7.5 15H25.5C26.3284 15 27 14.3284 27 13.5V13.5C27 12.6716 26.3284 12 25.5 12H7.5C6.67157 12 6 12.6716 6 13.5V13.5ZM7.5 0C6.67157 0 6 0.671573 6 1.5V1.5C6 2.32843 6.67157 3 7.5 3H25.5C26.3284 3 27 2.32843 27 1.5V1.5C27 0.671573 26.3284 0 25.5 0H7.5Z" fill="#2A61FF"/>
</svg>
