<svg width="25" height="26" viewBox="0 0 25 26" fill="none" xmlns="http://www.w3.org/2000/svg">
<path d="M15.714 18.807V17.667L15.357 17.239C14.9454 17.5787 14.5074 17.885 14.047 18.155C13.5818 18.4293 13.094 18.6634 12.589 18.855C12.0734 19.0478 11.5416 19.1944 11 19.293C10.4352 19.3965 9.8622 19.4484 9.28801 19.448C8.06907 19.4536 6.86103 19.2182 5.73342 18.7552C4.60582 18.2922 3.58091 17.6108 2.71767 16.7501C1.85444 15.8895 1.16992 14.8667 0.703515 13.7405C0.237109 12.6143 -0.00197862 11.4069 1.23328e-05 10.188C-0.00107603 8.96133 0.246581 7.7472 0.728012 6.61897C1.67668 4.40885 3.44687 2.65373 5.66501 1.72397C7.36885 1.00574 9.24789 0.810778 11.0629 1.16391C12.8779 1.51705 14.5468 2.4023 15.857 3.70697C16.9199 4.7678 17.7084 6.07156 18.1542 7.50553C18.6001 8.93949 18.6899 10.4605 18.416 11.937C18.315 12.4789 18.1668 13.0109 17.973 13.527C17.5928 14.5392 17.0466 15.4811 16.357 16.314L16.714 16.741H17.857L25 23.863L22.857 26L15.714 18.807ZM15.714 10.26C15.7081 8.67855 15.1152 7.15565 14.0502 5.98658C12.9852 4.81751 11.524 4.08557 9.94998 3.93267C8.37595 3.77978 6.80122 4.21683 5.53114 5.15908C4.26106 6.10133 3.38612 7.48164 3.07597 9.03236C2.76583 10.5831 3.04257 12.1937 3.85256 13.552C4.66254 14.9103 5.94803 15.9194 7.45979 16.3836C8.97154 16.8479 10.6018 16.7342 12.0346 16.0647C13.4673 15.3952 14.6003 14.2175 15.214 12.76C15.546 11.9681 15.716 11.1177 15.714 10.259V10.26Z" fill="#2A61FF"/>
</svg>
